# xmcd
#
# Track frame offsets:
#	150
#	23656
#	45733
#	61593
#	77059
#	93904
#	113724
#	136225
#	154434
#	170618
#	188408
#	200212
#	215728
#	234522
#	252241
#	270373
#	290385
#	308056
#	323905
#
# Disc length: 4547 seconds
#
# Revision: 0
# Processed by: cddbd v1.5.2PL0 Copyright (c) Steve Scherf et al.
# Submitted via: EZCDAudioConverter 4.0.9.1
#
DISCID=0511c113
DTITLE=陈奕迅 - 黑与白
DYEAR=1900
DGENRE=
TTITLE0=阿怪
TTITLE1=我们都寂寞
TTITLE2=兄妹
TTITLE3=十年
TTITLE4=要你的
TTITLE5=世界
TTITLE6=谢谢
TTITLE7=像一句广告
TTITLE8=寂寞奏鸣曲
TTITLE9=Last Order
TTITLE10=一个人
TTITLE11=明年今日
TTITLE12=随意门
TTITLE13=人来人往
TTITLE14=你的背包
TTITLE15=谢谢侬
TTITLE16=男人的错
TTITLE17=给爱丽斯
TTITLE18=Shall We Talk
EXTD=
EXTT0=
EXTT1=
EXTT2=
EXTT3=
EXTT4=
EXTT5=
EXTT6=
EXTT7=
EXTT8=
EXTT9=
EXTT10=
EXTT11=
EXTT12=
EXTT13=
EXTT14=
EXTT15=
EXTT16=
EXTT17=
EXTT18=
PLAYORDER=
